<?xml version="1.0" standalone="no"?>
<!DOCTYPE svg PUBLIC "-//W3C//DTD SVG 20010904//EN"
 "http://www.w3.org/TR/2001/REC-SVG-20010904/DTD/svg10.dtd">
<svg version="1.0" xmlns="http://www.w3.org/2000/svg"
 width="16.000000pt" height="16.000000pt" viewBox="0 0 16.000000 16.000000"
 preserveAspectRatio="xMidYMid meet">
<metadata>
Created by potrace 1.11, written by Peter Selinger 2001-2013
</metadata>
<g transform="translate(0.000000,16.000000) scale(0.002941,-0.002941)"
fill="#000000" stroke="none">
<path d="M700 5374 c-171 -45 -324 -170 -398 -325 -22 -46 -46 -109 -53 -139
-19 -76 -16 -221 5 -300 58 -215 238 -392 456 -446 97 -24 263 -15 352 19 195
75 347 245 393 438 78 332 -123 668 -451 753 -77 20 -229 20 -304 0z"/>
<path d="M2473 5065 c-176 -48 -324 -188 -385 -363 -19 -55 -23 -88 -23 -183
l0 -116 -80 -27 c-292 -98 -566 -311 -742 -576 -135 -202 -226 -462 -240 -685
-6 -97 -7 -102 -48 -160 -223 -317 -298 -736 -200 -1120 130 -515 562 -918
1080 -1010 117 -21 351 -21 470 0 50 9 140 33 202 54 l111 37 7 -44 c9 -63 61
-206 97 -272 191 -346 551 -539 949 -508 475 36 856 434 886 924 9 159 -27
346 -94 477 l-24 48 41 99 c22 55 52 148 67 207 25 98 27 125 27 288 0 184
-14 277 -59 404 -8 24 -15 45 -15 46 0 1 28 13 61 26 178 66 344 223 430 405
62 130 82 234 77 389 -4 113 -9 143 -37 225 -91 271 -306 472 -580 540 -42 11
-100 20 -128 20 l-53 0 -77 81 c-133 139 -298 234 -490 281 -146 35 -354 28
-510 -18 -21 -6 -23 -3 -23 31 0 100 -67 255 -146 338 -113 120 -246 177 -407
176 -51 0 -116 -7 -144 -14z"/>
</g>
</svg>
